<svg xmlns="http://www.w3.org/2000/svg" viewBox="0 0 64 64">
  <!-- Parrot icon for Para Connect -->
  <defs>
    <linearGradient id="bodyGradient" x1="0%" y1="0%" x2="0%" y2="100%">
      <stop offset="0%" style="stop-color:#10b981;stop-opacity:1" />
      <stop offset="100%" style="stop-color:#059669;stop-opacity:1" />
    </linearGradient>
  </defs>

  <!-- Body -->
  <ellipse cx="32" cy="38" rx="18" ry="22" fill="url(#bodyGradient)"/>

  <!-- Head -->
  <circle cx="32" cy="20" r="14" fill="#10b981"/>

  <!-- Beak -->
  <path d="M 32 18 Q 42 20 44 24 Q 42 25 32 23 Z" fill="#fbbf24"/>
  <path d="M 32 23 Q 42 25 44 28 Q 42 28.5 32 26 Z" fill="#f59e0b"/>

  <!-- Eye -->
  <circle cx="28" cy="18" r="3" fill="white"/>
  <circle cx="28" cy="18" r="1.5" fill="#1f2937"/>

  <!-- Wing -->
  <path d="M 22 32 Q 12 36 10 44 Q 14 42 22 40 Z" fill="#059669" opacity="0.8"/>

  <!-- Tail feathers -->
  <path d="M 32 58 Q 28 62 24 64 L 26 58 Z" fill="#0ea5e9"/>
  <path d="M 32 58 Q 32 62 32 64 L 32 58 Z" fill="#0284c7"/>
  <path d="M 32 58 Q 36 62 40 64 L 38 58 Z" fill="#0369a1"/>

  <!-- Chest detail -->
  <ellipse cx="32" cy="35" rx="8" ry="10" fill="#34d399" opacity="0.4"/>
</svg>
